<svg xmlns="http://www.w3.org/2000/svg" version="1.1" xmlns:xlink="http://www.w3.org/1999/xlink" width="1801.999755859375" height="1163" style="background-color: rgb(9, 9, 11);"><title>Mind Map</title><g class="smm-container" transform="matrix(1,0,0,1,109.63639824920642,346.9062068266221)"><g class="smm-line-container"><path d="M 1332.3635864257812,-123.90625 C 1359.3635864257812,-123.90625 1359.3635864257812,-278.90625 1386.3635864257812,-278.90625 L 1478.3635864257812,-278.90625" stroke-dasharray="none" stroke-width="1.5" stroke="#0080ff" fill="none"></path><path d="M 1332.3635864257812,-123.90625 C 1359.3635864257812,-123.90625 1359.3635864257812,-247.90625 1386.3635864257812,-247.90625 L 1530.3635864257812,-247.90625" stroke-dasharray="none" stroke-width="1.5" stroke="#0080ff" fill="none"></path><path d="M 1332.3635864257812,-123.90625 C 1359.3635864257812,-123.90625 1359.3635864257812,-216.90625 1386.3635864257812,-216.90625 L 1521.3635864257812,-216.90625" stroke-dasharray="none" stroke-width="1.5" stroke="#0080ff" fill="none"></path><path d="M 1332.3635864257812,-123.90625 C 1359.3635864257812,-123.90625 1359.3635864257812,-185.90625 1386.3635864257812,-185.90625 L 1567.3635864257812,-185.90625" stroke-dasharray="none" stroke-width="1.5" stroke="#0080ff" fill="none"></path><path d="M 1332.3635864257812,-123.90625 C 1359.3635864257812,-123.90625 1359.3635864257812,-154.90625 1386.3635864257812,-154.90625 L 1514.3635864257812,-154.90625" stroke-dasharray="none" stroke-width="1.5" stroke="#0080ff" fill="none"></path><path d="M 1332.3635864257812,-123.90625 C 1359.3635864257812,-123.90625 1359.3635864257812,-123.90625 1386.3635864257812,-123.90625 L 1512.3635864257812,-123.90625" stroke-dasharray="none" stroke-width="1.5" stroke="#0080ff" fill="none"></path><path d="M 1332.3635864257812,-123.90625 C 1359.3635864257812,-123.90625 1359.3635864257812,-92.90625 1386.3635864257812,-92.90625 L 1514.3635864257812,-92.90625" stroke-dasharray="none" stroke-width="1.5" stroke="#0080ff" fill="none"></path><path d="M 1332.3635864257812,-123.90625 C 1359.3635864257812,-123.90625 1359.3635864257812,-61.90625 1386.3635864257812,-61.90625 L 1493.3635864257812,-61.90625" stroke-dasharray="none" stroke-width="1.5" stroke="#0080ff" fill="none"></path><path d="M 1332.3635864257812,-123.90625 C 1359.3635864257812,-123.90625 1359.3635864257812,-30.90625 1386.3635864257812,-30.90625 L 1493.3635864257812,-30.90625" stroke-dasharray="none" stroke-width="1.5" stroke="#0080ff" fill="none"></path><path d="M 1332.3635864257812,-123.90625 C 1359.3635864257812,-123.90625 1359.3635864257812,0.09375 1386.3635864257812,0.09375 L 1600.3635864257812,0.09375" stroke-dasharray="none" stroke-width="1.5" stroke="#0080ff" fill="none"></path><path d="M 1332.3635864257812,-123.90625 C 1359.3635864257812,-123.90625 1359.3635864257812,31.09375 1386.3635864257812,31.09375 L 1506.3635864257812,31.09375" stroke-dasharray="none" stroke-width="1.5" stroke="#0080ff" fill="none"></path><path d="M 1431.3635864257812,248.09375 C 1458.3635864257812,248.09375 1458.3635864257812,186.09375 1485.3635864257812,186.09375 L 1652.3635864257812,186.09375" stroke-dasharray="none" stroke-width="1.5" stroke="#02bf69" fill="none"></path><path d="M 1431.3635864257812,248.09375 C 1458.3635864257812,248.09375 1458.3635864257812,217.09375 1485.3635864257812,217.09375 L 1631.3635864257812,217.09375" stroke-dasharray="none" stroke-width="1.5" stroke="#02bf69" fill="none"></path><path d="M 1431.3635864257812,248.09375 C 1458.3635864257812,248.09375 1458.3635864257812,248.09375 1485.3635864257812,248.09375 L 1629.3635864257812,248.09375" stroke-dasharray="none" stroke-width="1.5" stroke="#02bf69" fill="none"></path><path d="M 1431.3635864257812,248.09375 C 1458.3635864257812,248.09375 1458.3635864257812,279.09375 1485.3635864257812,279.09375 L 1646.3635864257812,279.09375" stroke-dasharray="none" stroke-width="1.5" stroke="#02bf69" fill="none"></path><path d="M 1431.3635864257812,248.09375 C 1458.3635864257812,248.09375 1458.3635864257812,310.09375 1485.3635864257812,310.09375 L 1682.3635864257812,310.09375" stroke-dasharray="none" stroke-width="1.5" stroke="#02bf69" fill="none"></path><path d="M 1396.3635864257812,465.09375 C 1423.3635864257812,465.09375 1423.3635864257812,341.09375 1450.3635864257812,341.09375 L 1654.3635864257812,341.09375" stroke-dasharray="none" stroke-width="1.5" stroke="#02bf69" fill="none"></path><path d="M 1396.3635864257812,465.09375 C 1423.3635864257812,465.09375 1423.3635864257812,372.09375 1450.3635864257812,372.09375 L 1634.3635864257812,372.09375" stroke-dasharray="none" stroke-width="1.5" stroke="#02bf69" fill="none"></path><path d="M 1396.3635864257812,465.09375 C 1423.3635864257812,465.09375 1423.3635864257812,403.09375 1450.3635864257812,403.09375 L 1594.3635864257812,403.09375" stroke-dasharray="none" stroke-width="1.5" stroke="#02bf69" fill="none"></path><path d="M 1396.3635864257812,465.09375 C 1423.3635864257812,465.09375 1423.3635864257812,434.09375 1450.3635864257812,434.09375 L 1612.3635864257812,434.09375" stroke-dasharray="none" stroke-width="1.5" stroke="#02bf69" fill="none"></path><path d="M 1396.3635864257812,465.09375 C 1423.3635864257812,465.09375 1423.3635864257812,465.09375 1450.3635864257812,465.09375 L 1624.3635864257812,465.09375" stroke-dasharray="none" stroke-width="1.5" stroke="#02bf69" fill="none"></path><path d="M 1396.3635864257812,465.09375 C 1423.3635864257812,465.09375 1423.3635864257812,496.09375 1450.3635864257812,496.09375 L 1606.3635864257812,496.09375" stroke-dasharray="none" stroke-width="1.5" stroke="#02bf69" fill="none"></path><path d="M 1396.3635864257812,465.09375 C 1423.3635864257812,465.09375 1423.3635864257812,527.09375 1450.3635864257812,527.09375 L 1605.3635864257812,527.09375" stroke-dasharray="none" stroke-width="1.5" stroke="#02bf69" fill="none"></path><path d="M 1396.3635864257812,465.09375 C 1423.3635864257812,465.09375 1423.3635864257812,558.09375 1450.3635864257812,558.09375 L 1610.3635864257812,558.09375" stroke-dasharray="none" stroke-width="1.5" stroke="#02bf69" fill="none"></path><path d="M 1396.3635864257812,465.09375 C 1423.3635864257812,465.09375 1423.3635864257812,589.09375 1450.3635864257812,589.09375 L 1633.3635864257812,589.09375" stroke-dasharray="none" stroke-width="1.5" stroke="#02bf69" fill="none"></path><path d="M 791.3635864257812,234.59375 C 843.3635864257812,234.59375 843.3635864257812,-77.90625 895.3635864257812,-77.90625 L 1162.3635864257812,-77.90625" fill="none" stroke-dasharray="none" stroke-width="1.5" stroke="#0080ff"></path><path d="M 616.3635864257812,234.59375 C 564.3635864257812,234.59375 564.3635864257812,139.09375 512.3635864257812,139.09375 L 264.36358642578125,139.09375" fill="none" stroke-dasharray="none" stroke-width="1.5" stroke="#f2a500"></path><path d="M 791.3635864257812,234.59375 C 843.3635864257812,234.59375 843.3635864257812,387.09375 895.3635864257812,387.09375 L 1142.3635864257812,387.09375" fill="none" stroke-dasharray="none" stroke-width="1.5" stroke="#02bf69"></path><path d="M 616.3635864257812,234.59375 C 564.3635864257812,234.59375 564.3635864257812,573.09375 512.3635864257812,573.09375 L 238.36358642578125,573.09375" fill="none" stroke-dasharray="none" stroke-width="1.5" stroke="#ff006e"></path><path d="M 791.3635864257812,234.59375 C 843.3635864257812,234.59375 843.3635864257812,712.59375 895.3635864257812,712.59375 L 1121.3635864257812,712.59375" fill="none" stroke-dasharray="none" stroke-width="1.5" stroke="#0080ff"></path><path d="M 1162.3635864257812,-77.90625 C 1189.3635864257812,-77.90625 1189.3635864257812,-309.90625 1216.3635864257812,-309.90625 L 1397.3635864257812,-309.90625" fill="none" stroke-dasharray="none" stroke-width="1.5" stroke="#0080ff"></path><path d="M 264.36358642578125,139.09375 C 237.36358642578125,139.09375 237.36358642578125,-170.40625 210.36358642578125,-170.40625 L 111.36358642578125,-170.40625" fill="none" stroke-dasharray="none" stroke-width="1.5" stroke="#f2a500"></path><path d="M 1142.3635864257812,387.09375 C 1169.3635864257812,387.09375 1169.3635864257812,248.09375 1196.3635864257812,248.09375 L 1431.3635864257812,248.09375" fill="none" stroke-dasharray="none" stroke-width="1.5" stroke="#02bf69"></path><path d="M 238.36358642578125,573.09375 C 211.36358642578125,573.09375 211.36358642578125,480.59375 184.36358642578125,480.59375 L 12.36358642578125,480.59375" fill="none" stroke-dasharray="none" stroke-width="1.5" stroke="#ff006e"></path><path d="M 1121.3635864257812,712.59375 C 1148.3635864257812,712.59375 1148.3635864257812,620.09375 1175.3635864257812,620.09375 L 1419.3635864257812,620.09375" fill="none" stroke-dasharray="none" stroke-width="1.5" stroke="#0080ff"></path><path d="M 1162.3635864257812,-77.90625 C 1189.3635864257812,-77.90625 1189.3635864257812,-123.90625 1216.3635864257812,-123.90625 L 1332.3635864257812,-123.90625" stroke-dasharray="none" stroke-width="1.5" stroke="#0080ff" fill="none"></path><path d="M 1162.3635864257812,-77.90625 C 1189.3635864257812,-77.90625 1189.3635864257812,62.09375 1216.3635864257812,62.09375 L 1338.3635864257812,62.09375" stroke-dasharray="none" stroke-width="1.5" stroke="#0080ff" fill="none"></path><path d="M 1162.3635864257812,-77.90625 C 1189.3635864257812,-77.90625 1189.3635864257812,93.09375 1216.3635864257812,93.09375 L 1320.3635864257812,93.09375" stroke-dasharray="none" stroke-width="1.5" stroke="#0080ff" fill="none"></path><path d="M 1162.3635864257812,-77.90625 C 1189.3635864257812,-77.90625 1189.3635864257812,124.09375 1216.3635864257812,124.09375 L 1389.3635864257812,124.09375" stroke-dasharray="none" stroke-width="1.5" stroke="#0080ff" fill="none"></path><path d="M 1162.3635864257812,-77.90625 C 1189.3635864257812,-77.90625 1189.3635864257812,155.09375 1216.3635864257812,155.09375 L 1351.3635864257812,155.09375" stroke-dasharray="none" stroke-width="1.5" stroke="#0080ff" fill="none"></path><path d="M 264.36358642578125,139.09375 C 237.36358642578125,139.09375 237.36358642578125,-139.40625 210.36358642578125,-139.40625 L 94.36358642578125,-139.40625" stroke-dasharray="none" stroke-width="1.5" stroke="#f2a500" fill="none"></path><path d="M 264.36358642578125,139.09375 C 237.36358642578125,139.09375 237.36358642578125,-108.40625 210.36358642578125,-108.40625 L 74.36358642578125,-108.40625" stroke-dasharray="none" stroke-width="1.5" stroke="#f2a500" fill="none"></path><path d="M 264.36358642578125,139.09375 C 237.36358642578125,139.09375 237.36358642578125,-77.40625 210.36358642578125,-77.40625 L 97.36358642578125,-77.40625" stroke-dasharray="none" stroke-width="1.5" stroke="#f2a500" fill="none"></path><path d="M 264.36358642578125,139.09375 C 237.36358642578125,139.09375 237.36358642578125,-46.40625 210.36358642578125,-46.40625 L 72.36358642578125,-46.40625" stroke-dasharray="none" stroke-width="1.5" stroke="#f2a500" fill="none"></path><path d="M 264.36358642578125,139.09375 C 237.36358642578125,139.09375 237.36358642578125,-15.40625 210.36358642578125,-15.40625 L 81.36358642578125,-15.40625" stroke-dasharray="none" stroke-width="1.5" stroke="#f2a500" fill="none"></path><path d="M 264.36358642578125,139.09375 C 237.36358642578125,139.09375 237.36358642578125,15.59375 210.36358642578125,15.59375 L 23.36358642578125,15.59375" stroke-dasharray="none" stroke-width="1.5" stroke="#f2a500" fill="none"></path><path d="M 264.36358642578125,139.09375 C 237.36358642578125,139.09375 237.36358642578125,46.59375 210.36358642578125,46.59375 L 48.36358642578125,46.59375" stroke-dasharray="none" stroke-width="1.5" stroke="#f2a500" fill="none"></path><path d="M 264.36358642578125,139.09375 C 237.36358642578125,139.09375 237.36358642578125,77.59375 210.36358642578125,77.59375 L 78.36358642578125,77.59375" stroke-dasharray="none" stroke-width="1.5" stroke="#f2a500" fill="none"></path><path d="M 264.36358642578125,139.09375 C 237.36358642578125,139.09375 237.36358642578125,108.59375 210.36358642578125,108.59375 L 74.36358642578125,108.59375" stroke-dasharray="none" stroke-width="1.5" stroke="#f2a500" fill="none"></path><path d="M 264.36358642578125,139.09375 C 237.36358642578125,139.09375 237.36358642578125,139.59375 210.36358642578125,139.59375 L 99.36358642578125,139.59375" stroke-dasharray="none" stroke-width="1.5" stroke="#f2a500" fill="none"></path><path d="M 264.36358642578125,139.09375 C 237.36358642578125,139.09375 237.36358642578125,170.59375 210.36358642578125,170.59375 L 61.36358642578125,170.59375" stroke-dasharray="none" stroke-width="1.5" stroke="#f2a500" fill="none"></path><path d="M 264.36358642578125,139.09375 C 237.36358642578125,139.09375 237.36358642578125,201.59375 210.36358642578125,201.59375 L 12.36358642578125,201.59375" stroke-dasharray="none" stroke-width="1.5" stroke="#f2a500" fill="none"></path><path d="M 264.36358642578125,139.09375 C 237.36358642578125,139.09375 237.36358642578125,232.59375 210.36358642578125,232.59375 L 29.36358642578125,232.59375" stroke-dasharray="none" stroke-width="1.5" stroke="#f2a500" fill="none"></path><path d="M 264.36358642578125,139.09375 C 237.36358642578125,139.09375 237.36358642578125,263.59375 210.36358642578125,263.59375 L 17.36358642578125,263.59375" stroke-dasharray="none" stroke-width="1.5" stroke="#f2a500" fill="none"></path><path d="M 264.36358642578125,139.09375 C 237.36358642578125,139.09375 237.36358642578125,294.59375 210.36358642578125,294.59375 L 11.36358642578125,294.59375" stroke-dasharray="none" stroke-width="1.5" stroke="#f2a500" fill="none"></path><path d="M 264.36358642578125,139.09375 C 237.36358642578125,139.09375 237.36358642578125,325.59375 210.36358642578125,325.59375 L 81.36358642578125,325.59375" stroke-dasharray="none" stroke-width="1.5" stroke="#f2a500" fill="none"></path><path d="M 264.36358642578125,139.09375 C 237.36358642578125,139.09375 237.36358642578125,356.59375 210.36358642578125,356.59375 L 28.36358642578125,356.59375" stroke-dasharray="none" stroke-width="1.5" stroke="#f2a500" fill="none"></path><path d="M 264.36358642578125,139.09375 C 237.36358642578125,139.09375 237.36358642578125,387.59375 210.36358642578125,387.59375 L -9.63641357421875,387.59375" stroke-dasharray="none" stroke-width="1.5" stroke="#f2a500" fill="none"></path><path d="M 264.36358642578125,139.09375 C 237.36358642578125,139.09375 237.36358642578125,418.59375 210.36358642578125,418.59375 L 17.36358642578125,418.59375" stroke-dasharray="none" stroke-width="1.5" stroke="#f2a500" fill="none"></path><path d="M 264.36358642578125,139.09375 C 237.36358642578125,139.09375 237.36358642578125,449.59375 210.36358642578125,449.59375 L -20.63641357421875,449.59375" stroke-dasharray="none" stroke-width="1.5" stroke="#f2a500" fill="none"></path><path d="M 1142.3635864257812,387.09375 C 1169.3635864257812,387.09375 1169.3635864257812,465.09375 1196.3635864257812,465.09375 L 1396.3635864257812,465.09375" stroke-dasharray="none" stroke-width="1.5" stroke="#02bf69" fill="none"></path><path d="M 238.36358642578125,573.09375 C 211.36358642578125,573.09375 211.36358642578125,511.59375 184.36358642578125,511.59375 L 10.36358642578125,511.59375" stroke-dasharray="none" stroke-width="1.5" stroke="#ff006e" fill="none"></path><path d="M 238.36358642578125,573.09375 C 211.36358642578125,573.09375 211.36358642578125,542.59375 184.36358642578125,542.59375 L -99.63641357421875,542.59375" stroke-dasharray="none" stroke-width="1.5" stroke="#ff006e" fill="none"></path><path d="M 238.36358642578125,573.09375 C 211.36358642578125,573.09375 211.36358642578125,573.59375 184.36358642578125,573.59375 L 22.36358642578125,573.59375" stroke-dasharray="none" stroke-width="1.5" stroke="#ff006e" fill="none"></path><path d="M 238.36358642578125,573.09375 C 211.36358642578125,573.09375 211.36358642578125,604.59375 184.36358642578125,604.59375 L 23.36358642578125,604.59375" stroke-dasharray="none" stroke-width="1.5" stroke="#ff006e" fill="none"></path><path d="M 238.36358642578125,573.09375 C 211.36358642578125,573.09375 211.36358642578125,635.59375 184.36358642578125,635.59375 L -39.63641357421875,635.59375" stroke-dasharray="none" stroke-width="1.5" stroke="#ff006e" fill="none"></path><path d="M 238.36358642578125,573.09375 C 211.36358642578125,573.09375 211.36358642578125,666.59375 184.36358642578125,666.59375 L 17.36358642578125,666.59375" stroke-dasharray="none" stroke-width="1.5" stroke="#ff006e" fill="none"></path><path d="M 1121.3635864257812,712.59375 C 1148.3635864257812,712.59375 1148.3635864257812,651.09375 1175.3635864257812,651.09375 L 1340.3635864257812,651.09375" stroke-dasharray="none" stroke-width="1.5" stroke="#0080ff" fill="none"></path><path d="M 1121.3635864257812,712.59375 C 1148.3635864257812,712.59375 1148.3635864257812,682.09375 1175.3635864257812,682.09375 L 1374.3635864257812,682.09375" stroke-dasharray="none" stroke-width="1.5" stroke="#0080ff" fill="none"></path><path d="M 1121.3635864257812,712.59375 C 1148.3635864257812,712.59375 1148.3635864257812,713.09375 1175.3635864257812,713.09375 L 1376.3635864257812,713.09375" stroke-dasharray="none" stroke-width="1.5" stroke="#0080ff" fill="none"></path><path d="M 1121.3635864257812,712.59375 C 1148.3635864257812,712.59375 1148.3635864257812,744.09375 1175.3635864257812,744.09375 L 1415.3635864257812,744.09375" stroke-dasharray="none" stroke-width="1.5" stroke="#0080ff" fill="none"></path><path d="M 1121.3635864257812,712.59375 C 1148.3635864257812,712.59375 1148.3635864257812,775.09375 1175.3635864257812,775.09375 L 1368.3635864257812,775.09375" stroke-dasharray="none" stroke-width="1.5" stroke="#0080ff" fill="none"></path><path d="M 1121.3635864257812,712.59375 C 1148.3635864257812,712.59375 1148.3635864257812,806.09375 1175.3635864257812,806.09375 L 1289.3635864257812,806.09375" stroke-dasharray="none" stroke-width="1.5" stroke="#0080ff" fill="none"></path></g><g class="smm-node-container"><g class="smm-node" transform="matrix(1,0,0,1,616.3635864257812,211.09375)" style="cursor: default;"><path d="
      M5,0
      L170,0
      C170,0 175,0 175,5
      L175,42
      C175,42 175,47 170,47
      L5,47
      C5,47 0,47 0,42
      L0,5
      C0,5 0,0 5,0
      Z
    " class="smm-node-shape" transform="matrix(1,0,0,1,0,0)" fill="transparent" stroke-dasharray="none" stroke-width="0" stroke="transparent"></path><g transform="matrix(1,0,0,1,9.039192199707031,12)"><g data-width="151" data-height="23" data-ismultiLine="false" data-offsetx="0"><text fill="#fafafa" style="font-size: 16px; font-weight: normal; font-style: normal; text-decoration: none;" y="18.181817865371706" x="0"><tspan dy="0" x="0">مشروع IBB Marketing</tspan></text></g></g><rect width="179" height="51" x="-2" y="-2" class="smm-hover-node" rx="5" ry="5" fill="none" stroke="transparent"></rect></g><g class="smm-node" transform="matrix(1,0,0,1,895.3635864257812,-103.90625)" style="cursor: default;"><path d="
      M5,0
      L259,0
      C259,0 264,0 264,5
      L264,18
      C264,18 264,23 259,23
      L5,23
      C5,23 0,23 0,18
      L0,5
      C0,5 0,0 5,0
      Z
    " class="smm-node-shape" transform="matrix(1,0,0,1,1.5,1.5)" fill="transparent" stroke-dasharray="none" stroke-width="3" stroke="transparent"></path><g transform="matrix(1,0,0,1,29.72925567626953,1.5)"><g data-width="200" data-height="23" data-ismultiLine="false" data-offsetx="0"><text fill="#fafafa" style="font-size: 16px; font-weight: normal; font-style: normal; text-decoration: none;" y="18.181817865371706" x="0"><tspan dy="0" x="0">بنية المشروع وملفاته الرئيسية</tspan></text></g></g><rect width="271" height="30" x="-2" y="-2" class="smm-hover-node" rx="5" ry="5" fill="none" stroke="transparent"></rect><rect fill="transparent" width="20" height="26" x="267" y="0"></rect></g><g class="smm-node" transform="matrix(1,0,0,1,1216.3635864257812,-336.90625)" style="cursor: default;"><path d="
      M5,0
      L176,0
      C176,0 181,0 181,5
      L181,22
      C181,22 181,27 176,27
      L5,27
      C5,27 0,27 0,22
      L0,5
      C0,5 0,0 5,0
      Z
    " class="smm-node-shape" transform="matrix(1,0,0,1,0,0)" fill="transparent" stroke-dasharray="none" stroke-width="0" stroke="transparent"></path><g transform="matrix(1,0,0,1,32.28714370727539,2)"><g data-width="117" data-height="23" data-ismultiLine="false" data-offsetx="0"><text fill="#fafafa" style="font-size: 16px; font-weight: normal; font-style: normal; text-decoration: none;" y="18.181817865371706" x="0"><tspan dy="0" x="0">connect_DB.php</tspan></text></g></g><rect width="185" height="31" x="-2" y="-2" class="smm-hover-node" rx="5" ry="5" fill="none" stroke="transparent"></rect></g><g class="smm-node" transform="matrix(1,0,0,1,1216.3635864257812,-150.90625)" style="cursor: default;"><path d="
      M5,0
      L111,0
      C111,0 116,0 116,5
      L116,22
      C116,22 116,27 111,27
      L5,27
      C5,27 0,27 0,22
      L0,5
      C0,5 0,0 5,0
      Z
    " class="smm-node-shape" transform="matrix(1,0,0,1,0,0)" fill="transparent" stroke-dasharray="none" stroke-width="0" stroke="transparent"></path><g transform="matrix(1,0,0,1,30.159069061279297,2)"><g data-width="52" data-height="23" data-ismultiLine="false" data-offsetx="0"><text fill="#fafafa" style="font-size: 16px; font-weight: normal; font-style: normal; text-decoration: none;" y="18.181817865371706" x="0"><tspan dy="0" x="0">admin/</tspan></text></g></g><rect width="120" height="31" x="-2" y="-2" class="smm-hover-node" rx="5" ry="5" fill="none" stroke="transparent"></rect><rect fill="transparent" width="20" height="27" x="116" y="0"></rect></g><g class="smm-node" transform="matrix(1,0,0,1,1386.3635864257812,-305.90625)" style="cursor: default;"><path d="
      M5,0
      L87,0
      C87,0 92,0 92,5
      L92,22
      C92,22 92,27 87,27
      L5,27
      C5,27 0,27 0,22
      L0,5
      C0,5 0,0 5,0
      Z
    " class="smm-node-shape" transform="matrix(1,0,0,1,0,0)" fill="transparent" stroke-dasharray="none" stroke-width="0" stroke="transparent"></path><g transform="matrix(1,0,0,1,30.814037322998047,2)"><g data-width="28" data-height="23" data-ismultiLine="false" data-offsetx="0"><text fill="#fafafa" style="font-size: 16px; font-weight: normal; font-style: normal; text-decoration: none;" y="18.181817865371706" x="0"><tspan dy="0" x="0">file/</tspan></text></g></g><rect width="96" height="31" x="-2" y="-2" class="smm-hover-node" rx="5" ry="5" fill="none" stroke="transparent"></rect></g><g class="smm-node" transform="matrix(1,0,0,1,1386.3635864257812,-274.90625)" style="cursor: default;"><path d="
      M5,0
      L139,0
      C139,0 144,0 144,5
      L144,22
      C144,22 144,27 139,27
      L5,27
      C5,27 0,27 0,22
      L0,5
      C0,5 0,0 5,0
      Z
    " class="smm-node-shape" transform="matrix(1,0,0,1,0,0)" fill="transparent" stroke-dasharray="none" stroke-width="0" stroke="transparent"></path><g transform="matrix(1,0,0,1,31.504100799560547,2)"><g data-width="80" data-height="23" data-ismultiLine="false" data-offsetx="0"><text fill="#fafafa" style="font-size: 16px; font-weight: normal; font-style: normal; text-decoration: none;" y="18.181817865371706" x="0"><tspan dy="0" x="0">categories/</tspan></text></g></g><rect width="148" height="31" x="-2" y="-2" class="smm-hover-node" rx="5" ry="5" fill="none" stroke="transparent"></rect></g><g class="smm-node" transform="matrix(1,0,0,1,1386.3635864257812,-243.90625)" style="cursor: default;"><path d="
      M5,0
      L130,0
      C130,0 135,0 135,5
      L135,22
      C135,22 135,27 130,27
      L5,27
      C5,27 0,27 0,22
      L0,5
      C0,5 0,0 5,0
      Z
    " class="smm-node-shape" transform="matrix(1,0,0,1,0,0)" fill="transparent" stroke-dasharray="none" stroke-width="0" stroke="transparent"></path><g transform="matrix(1,0,0,1,34.59708023071289,2)"><g data-width="71" data-height="23" data-ismultiLine="false" data-offsetx="0"><text fill="#fafafa" style="font-size: 16px; font-weight: normal; font-style: normal; text-decoration: none;" y="18.181817865371706" x="0"><tspan dy="0" x="0">products/</tspan></text></g></g><rect width="139" height="31" x="-2" y="-2" class="smm-hover-node" rx="5" ry="5" fill="none" stroke="transparent"></rect></g><g class="smm-node" transform="matrix(1,0,0,1,1386.3635864257812,-212.90625)" style="cursor: default;"><path d="
      M5,0
      L176,0
      C176,0 181,0 181,5
      L181,22
      C181,22 181,27 176,27
      L5,27
      C5,27 0,27 0,22
      L0,5
      C0,5 0,0 5,0
      Z
    " class="smm-node-shape" transform="matrix(1,0,0,1,0,0)" fill="transparent" stroke-dasharray="none" stroke-width="0" stroke="transparent"></path><g transform="matrix(1,0,0,1,32.28714370727539,2)"><g data-width="117" data-height="23" data-ismultiLine="false" data-offsetx="0"><text fill="#fafafa" style="font-size: 16px; font-weight: normal; font-style: normal; text-decoration: none;" y="18.181817865371706" x="0"><tspan dy="0" x="0">purchase_order/</tspan></text></g></g><rect width="185" height="31" x="-2" y="-2" class="smm-hover-node" rx="5" ry="5" fill="none" stroke="transparent"></rect></g><g class="smm-node" transform="matrix(1,0,0,1,1386.3635864257812,-181.90625)" style="cursor: default;"><path d="
      M5,0
      L123,0
      C123,0 128,0 128,5
      L128,22
      C128,22 128,27 123,27
      L5,27
      C5,27 0,27 0,22
      L0,5
      C0,5 0,0 5,0
      Z
    " class="smm-node-shape" transform="matrix(1,0,0,1,0,0)" fill="transparent" stroke-dasharray="none" stroke-width="0" stroke="transparent"></path><g transform="matrix(1,0,0,1,33.628074645996094,2)"><g data-width="64" data-height="23" data-ismultiLine="false" data-offsetx="0"><text fill="#fafafa" style="font-size: 16px; font-weight: normal; font-style: normal; text-decoration: none;" y="18.181817865371706" x="0"><tspan dy="0" x="0">invoices/</tspan></text></g></g><rect width="132" height="31" x="-2" y="-2" class="smm-hover-node" rx="5" ry="5" fill="none" stroke="transparent"></rect></g><g class="smm-node" transform="matrix(1,0,0,1,1386.3635864257812,-150.90625)" style="cursor: default;"><path d="
      M5,0
      L121,0
      C121,0 126,0 126,5
      L126,22
      C126,22 126,27 121,27
      L5,27
      C5,27 0,27 0,22
      L0,5
      C0,5 0,0 5,0
      Z
    " class="smm-node-shape" transform="matrix(1,0,0,1,0,0)" fill="transparent" stroke-dasharray="none" stroke-width="0" stroke="transparent"></path><g transform="matrix(1,0,0,1,32.628074645996094,2)"><g data-width="62" data-height="23" data-ismultiLine="false" data-offsetx="0"><text fill="#fafafa" style="font-size: 16px; font-weight: normal; font-style: normal; text-decoration: none;" y="18.181817865371706" x="0"><tspan dy="0" x="0">Reports/</tspan></text></g></g><rect width="130" height="31" x="-2" y="-2" class="smm-hover-node" rx="5" ry="5" fill="none" stroke="transparent"></rect></g><g class="smm-node" transform="matrix(1,0,0,1,1386.3635864257812,-119.90625)" style="cursor: default;"><path d="
      M5,0
      L123,0
      C123,0 128,0 128,5
      L128,22
      C128,22 128,27 123,27
      L5,27
      C5,27 0,27 0,22
      L0,5
      C0,5 0,0 5,0
      Z
    " class="smm-node-shape" transform="matrix(1,0,0,1,0,0)" fill="transparent" stroke-dasharray="none" stroke-width="0" stroke="transparent"></path><g transform="matrix(1,0,0,1,31.09708023071289,2)"><g data-width="64" data-height="23" data-ismultiLine="false" data-offsetx="0"><text fill="#fafafa" style="font-size: 16px; font-weight: normal; font-style: normal; text-decoration: none;" y="18.181817865371706" x="0"><tspan dy="0" x="0">supplier/</tspan></text></g></g><rect width="132" height="31" x="-2" y="-2" class="smm-hover-node" rx="5" ry="5" fill="none" stroke="transparent"></rect></g><g class="smm-node" transform="matrix(1,0,0,1,1386.3635864257812,-88.90625)" style="cursor: default;"><path d="
      M5,0
      L102,0
      C102,0 107,0 107,5
      L107,22
      C107,22 107,27 102,27
      L5,27
      C5,27 0,27 0,22
      L0,5
      C0,5 0,0 5,0
      Z
    " class="smm-node-shape" transform="matrix(1,0,0,1,0,0)" fill="transparent" stroke-dasharray="none" stroke-width="0" stroke="transparent"></path><g transform="matrix(1,0,0,1,33.25205039978027,2)"><g data-width="43" data-height="23" data-ismultiLine="false" data-offsetx="0"><text fill="#fafafa" style="font-size: 16px; font-weight: normal; font-style: normal; text-decoration: none;" y="18.181817865371706" x="0"><tspan dy="0" x="0">Carts/</tspan></text></g></g><rect width="111" height="31" x="-2" y="-2" class="smm-hover-node" rx="5" ry="5" fill="none" stroke="transparent"></rect></g><g class="smm-node" transform="matrix(1,0,0,1,1386.3635864257812,-57.90625)" style="cursor: default;"><path d="
      M5,0
      L102,0
      C102,0 107,0 107,5
      L107,22
      C107,22 107,27 102,27
      L5,27
      C5,27 0,27 0,22
      L0,5
      C0,5 0,0 5,0
      Z
    " class="smm-node-shape" transform="matrix(1,0,0,1,0,0)" fill="transparent" stroke-dasharray="none" stroke-width="0" stroke="transparent"></path><g transform="matrix(1,0,0,1,30.72105598449707,2)"><g data-width="43" data-height="23" data-ismultiLine="false" data-offsetx="0"><text fill="#fafafa" style="font-size: 16px; font-weight: normal; font-style: normal; text-decoration: none;" y="18.181817865371706" x="0"><tspan dy="0" x="0">login/</tspan></text></g></g><rect width="111" height="31" x="-2" y="-2" class="smm-hover-node" rx="5" ry="5" fill="none" stroke="transparent"></rect></g><g class="smm-node" transform="matrix(1,0,0,1,1386.3635864257812,-26.90625)" style="cursor: default;"><path d="
      M5,0
      L209,0
      C209,0 214,0 214,5
      L214,22
      C214,22 214,27 209,27
      L5,27
      C5,27 0,27 0,22
      L0,5
      C0,5 0,0 5,0
      Z
    " class="smm-node-shape" transform="matrix(1,0,0,1,0,0)" fill="transparent" stroke-dasharray="none" stroke-width="0" stroke="transparent"></path><g transform="matrix(1,0,0,1,26.008201599121094,2)"><g data-width="150" data-height="23" data-ismultiLine="false" data-offsetx="0"><text fill="#fafafa" style="font-size: 16px; font-weight: normal; font-style: normal; text-decoration: none;" y="18.181817865371706" x="0"><tspan dy="0" x="0">wallet_management/</tspan></text></g></g><rect width="218" height="31" x="-2" y="-2" class="smm-hover-node" rx="5" ry="5" fill="none" stroke="transparent"></rect></g><g class="smm-node" transform="matrix(1,0,0,1,1386.3635864257812,4.09375)" style="cursor: default;"><path d="
      M5,0
      L115,0
      C115,0 120,0 120,5
      L120,22
      C120,22 120,27 115,27
      L5,27
      C5,27 0,27 0,22
      L0,5
      C0,5 0,0 5,0
      Z
    " class="smm-node-shape" transform="matrix(1,0,0,1,0,0)" fill="transparent" stroke-dasharray="none" stroke-width="0" stroke="transparent"></path><g transform="matrix(1,0,0,1,34.6900634765625,2)"><g data-width="56" data-height="23" data-ismultiLine="false" data-offsetx="0"><text fill="#fafafa" style="font-size: 16px; font-weight: normal; font-style: normal; text-decoration: none;" y="18.181817865371706" x="0"><tspan dy="0" x="0">Orders/</tspan></text></g></g><rect width="124" height="31" x="-2" y="-2" class="smm-hover-node" rx="5" ry="5" fill="none" stroke="transparent"></rect></g><g class="smm-node" transform="matrix(1,0,0,1,1216.3635864257812,35.09375)" style="cursor: default;"><path d="
      M5,0
      L117,0
      C117,0 122,0 122,5
      L122,22
      C122,22 122,27 117,27
      L5,27
      C5,27 0,27 0,22
      L0,5
      C0,5 0,0 5,0
      Z
    " class="smm-node-shape" transform="matrix(1,0,0,1,0,0)" fill="transparent" stroke-dasharray="none" stroke-width="0" stroke="transparent"></path><g transform="matrix(1,0,0,1,30.628074645996094,2)"><g data-width="58" data-height="23" data-ismultiLine="false" data-offsetx="0"><text fill="#fafafa" style="font-size: 16px; font-weight: normal; font-style: normal; text-decoration: none;" y="18.181817865371706" x="0"><tspan dy="0" x="0">include/</tspan></text></g></g><rect width="126" height="31" x="-2" y="-2" class="smm-hover-node" rx="5" ry="5" fill="none" stroke="transparent"></rect></g><g class="smm-node" transform="matrix(1,0,0,1,1216.3635864257812,66.09375)" style="cursor: default;"><path d="
      M5,0
      L99,0
      C99,0 104,0 104,5
      L104,22
      C104,22 104,27 99,27
      L5,27
      C5,27 0,27 0,22
      L0,5
      C0,5 0,0 5,0
      Z
    " class="smm-node-shape" transform="matrix(1,0,0,1,0,0)" fill="transparent" stroke-dasharray="none" stroke-width="0" stroke="transparent"></path><g transform="matrix(1,0,0,1,31.752050399780273,2)"><g data-width="40" data-height="23" data-ismultiLine="false" data-offsetx="0"><text fill="#fafafa" style="font-size: 16px; font-weight: normal; font-style: normal; text-decoration: none;" y="18.181817865371706" x="0"><tspan dy="0" x="0">Style/</tspan></text></g></g><rect width="108" height="31" x="-2" y="-2" class="smm-hover-node" rx="5" ry="5" fill="none" stroke="transparent"></rect></g><g class="smm-node" transform="matrix(1,0,0,1,1216.3635864257812,97.09375)" style="cursor: default;"><path d="
      M5,0
      L168,0
      C168,0 173,0 173,5
      L173,22
      C173,22 173,27 168,27
      L5,27
      C5,27 0,27 0,22
      L0,5
      C0,5 0,0 5,0
      Z
    " class="smm-node-shape" transform="matrix(1,0,0,1,0,0)" fill="transparent" stroke-dasharray="none" stroke-width="0" stroke="transparent"></path><g transform="matrix(1,0,0,1,33.3491325378418,2)"><g data-width="109" data-height="23" data-ismultiLine="false" data-offsetx="0"><text fill="#fafafa" style="font-size: 16px; font-weight: normal; font-style: normal; text-decoration: none;" y="18.181817865371706" x="0"><tspan dy="0" x="0">assets/images/</tspan></text></g></g><rect width="177" height="31" x="-2" y="-2" class="smm-hover-node" rx="5" ry="5" fill="none" stroke="transparent"></rect></g><g class="smm-node" transform="matrix(1,0,0,1,1216.3635864257812,128.09375)" style="cursor: default;"><path d="
      M5,0
      L130,0
      C130,0 135,0 135,5
      L135,22
      C135,22 135,27 130,27
      L5,27
      C5,27 0,27 0,22
      L0,5
      C0,5 0,0 5,0
      Z
    " class="smm-node-shape" transform="matrix(1,0,0,1,0,0)" fill="transparent" stroke-dasharray="none" stroke-width="0" stroke="transparent"></path><g transform="matrix(1,0,0,1,29.53509521484375,2)"><g data-width="71" data-height="23" data-ismultiLine="false" data-offsetx="0"><text fill="#fafafa" style="font-size: 16px; font-weight: normal; font-style: normal; text-decoration: none;" y="18.181817865371706" x="0"><tspan dy="0" x="0">index.php</tspan></text></g></g><rect width="139" height="31" x="-2" y="-2" class="smm-hover-node" rx="5" ry="5" fill="none" stroke="transparent"></rect></g><g class="smm-node" transform="matrix(1,0,0,1,264.36358642578125,113.09375)" style="cursor: default;"><path d="
      M5,0
      L240,0
      C240,0 245,0 245,5
      L245,18
      C245,18 245,23 240,23
      L5,23
      C5,23 0,23 0,18
      L0,5
      C0,5 0,0 5,0
      Z
    " class="smm-node-shape" transform="matrix(1,0,0,1,1.5,1.5)" fill="transparent" stroke-dasharray="none" stroke-width="3" stroke="transparent"></path><g transform="matrix(1,0,0,1,30.353233337402344,1.5)"><g data-width="181" data-height="23" data-ismultiLine="false" data-offsetx="0"><text fill="#fafafa" style="font-size: 16px; font-weight: normal; font-style: normal; text-decoration: none;" y="18.181817865371706" x="0"><tspan dy="0" x="0">قاعدة البيانات (users_db2)</tspan></text></g></g><rect width="252" height="30" x="-2" y="-2" class="smm-hover-node" rx="5" ry="5" fill="none" stroke="transparent"></rect><rect fill="transparent" width="20" height="26" x="-20" y="0"></rect></g><g class="smm-node" transform="matrix(1,0,0,1,111.36358642578125,-197.40625)" style="cursor: default;"><path d="
      M5,0
      L94,0
      C94,0 99,0 99,5
      L99,22
      C99,22 99,27 94,27
      L5,27
      C5,27 0,27 0,22
      L0,5
      C0,5 0,0 5,0
      Z
    " class="smm-node-shape" transform="matrix(1,0,0,1,0,0)" fill="transparent" stroke-dasharray="none" stroke-width="0" stroke="transparent"></path><g transform="matrix(1,0,0,1,31.783044815063477,2)"><g data-width="35" data-height="23" data-ismultiLine="false" data-offsetx="0"><text fill="#fafafa" style="font-size: 16px; font-weight: normal; font-style: normal; text-decoration: none;" y="18.181817865371706" x="0"><tspan dy="0" x="0">roles</tspan></text></g></g><rect width="103" height="31" x="-2" y="-2" class="smm-hover-node" rx="5" ry="5" fill="none" stroke="transparent"></rect></g><g class="smm-node" transform="matrix(1,0,0,1,94.36358642578125,-166.40625)" style="cursor: default;"><path d="
      M5,0
      L111,0
      C111,0 116,0 116,5
      L116,22
      C116,22 116,27 111,27
      L5,27
      C5,27 0,27 0,22
      L0,5
      C0,5 0,0 5,0
      Z
    " class="smm-node-shape" transform="matrix(1,0,0,1,0,0)" fill="transparent" stroke-dasharray="none" stroke-width="0" stroke="transparent"></path><g transform="matrix(1,0,0,1,32.6900634765625,2)"><g data-width="52" data-height="23" data-ismultiLine="false" data-offsetx="0"><text fill="#fafafa" style="font-size: 16px; font-weight: normal; font-style: normal; text-decoration: none;" y="18.181817865371706" x="0"><tspan dy="0" x="0">user_tb</tspan></text></g></g><rect width="120" height="31" x="-2" y="-2" class="smm-hover-node" rx="5" ry="5" fill="none" stroke="transparent"></rect></g><g class="smm-node" transform="matrix(1,0,0,1,74.36358642578125,-135.40625)" style="cursor: default;"><path d="
      M5,0
      L131,0
      C131,0 136,0 136,5
      L136,22
      C136,22 136,27 131,27
      L5,27
      C5,27 0,27 0,22
      L0,5
      C0,5 0,0 5,0
      Z
    " class="smm-node-shape" transform="matrix(1,0,0,1,0,0)" fill="transparent" stroke-dasharray="none" stroke-width="0" stroke="transparent"></path><g transform="matrix(1,0,0,1,32.56608963012695,2)"><g data-width="72" data-height="23" data-ismultiLine="false" data-offsetx="0"><text fill="#fafafa" style="font-size: 16px; font-weight: normal; font-style: normal; text-decoration: none;" y="18.181817865371706" x="0"><tspan dy="0" x="0">addresses</tspan></text></g></g><rect width="140" height="31" x="-2" y="-2" class="smm-hover-node" rx="5" ry="5" fill="none" stroke="transparent"></rect></g><g class="smm-node" transform="matrix(1,0,0,1,97.36358642578125,-104.40625)" style="cursor: default;"><path d="
      M5,0
      L108,0
      C108,0 113,0 113,5
      L113,22
      C113,22 113,27 108,27
      L5,27
      C5,27 0,27 0,22
      L0,5
      C0,5 0,0 5,0
      Z
    " class="smm-node-shape" transform="matrix(1,0,0,1,0,0)" fill="transparent" stroke-dasharray="none" stroke-width="0" stroke="transparent"></path><g transform="matrix(1,0,0,1,31.1900634765625,2)"><g data-width="49" data-height="23" data-ismultiLine="false" data-offsetx="0"><text fill="#fafafa" style="font-size: 16px; font-weight: normal; font-style: normal; text-decoration: none;" y="18.181817865371706" x="0"><tspan dy="0" x="0">wallets</tspan></text></g></g><rect width="117" height="31" x="-2" y="-2" class="smm-hover-node" rx="5" ry="5" fill="none" stroke="transparent"></rect></g><g class="smm-node" transform="matrix(1,0,0,1,72.36358642578125,-73.40625)" style="cursor: default;"><path d="
      M5,0
      L133,0
      C133,0 138,0 138,5
      L138,22
      C138,22 138,27 133,27
      L5,27
      C5,27 0,27 0,22
      L0,5
      C0,5 0,0 5,0
      Z
    " class="smm-node-shape" transform="matrix(1,0,0,1,0,0)" fill="transparent" stroke-dasharray="none" stroke-width="0" stroke="transparent"></path><g transform="matrix(1,0,0,1,31.03509521484375,2)"><g data-width="74" data-height="23" data-ismultiLine="false" data-offsetx="0"><text fill="#fafafa" style="font-size: 16px; font-weight: normal; font-style: normal; text-decoration: none;" y="18.181817865371706" x="0"><tspan dy="0" x="0">categories</tspan></text></g></g><rect width="142" height="31" x="-2" y="-2" class="smm-hover-node" rx="5" ry="5" fill="none" stroke="transparent"></rect></g><g class="smm-node" transform="matrix(1,0,0,1,81.36358642578125,-42.40625)" style="cursor: default;"><path d="
      M5,0
      L124,0
      C124,0 129,0 129,5
      L129,22
      C129,22 129,27 124,27
      L5,27
      C5,27 0,27 0,22
      L0,5
      C0,5 0,0 5,0
      Z
    " class="smm-node-shape" transform="matrix(1,0,0,1,0,0)" fill="transparent" stroke-dasharray="none" stroke-width="0" stroke="transparent"></path><g transform="matrix(1,0,0,1,34.128074645996094,2)"><g data-width="65" data-height="23" data-ismultiLine="false" data-offsetx="0"><text fill="#fafafa" style="font-size: 16px; font-weight: normal; font-style: normal; text-decoration: none;" y="18.181817865371706" x="0"><tspan dy="0" x="0">products</tspan></text></g></g><rect width="133" height="31" x="-2" y="-2" class="smm-hover-node" rx="5" ry="5" fill="none" stroke="transparent"></rect></g><g class="smm-node" transform="matrix(1,0,0,1,23.36358642578125,-11.40625)" style="cursor: default;"><path d="
      M5,0
      L182,0
      C182,0 187,0 187,5
      L187,22
      C187,22 187,27 182,27
      L5,27
      C5,27 0,27 0,22
      L0,5
      C0,5 0,0 5,0
      Z
    " class="smm-node-shape" transform="matrix(1,0,0,1,0,0)" fill="transparent" stroke-dasharray="none" stroke-width="0" stroke="transparent"></path><g transform="matrix(1,0,0,1,32.75614929199219,2)"><g data-width="123" data-height="23" data-ismultiLine="false" data-offsetx="0"><text fill="#fafafa" style="font-size: 16px; font-weight: normal; font-style: normal; text-decoration: none;" y="18.181817865371706" x="0"><tspan dy="0" x="0">products_images</tspan></text></g></g><rect width="191" height="31" x="-2" y="-2" class="smm-hover-node" rx="5" ry="5" fill="none" stroke="transparent"></rect></g><g class="smm-node" transform="matrix(1,0,0,1,48.36358642578125,19.59375)" style="cursor: default;"><path d="
      M5,0
      L157,0
      C157,0 162,0 162,5
      L162,22
      C162,22 162,27 157,27
      L5,27
      C5,27 0,27 0,22
      L0,5
      C0,5 0,0 5,0
      Z
    " class="smm-node-shape" transform="matrix(1,0,0,1,0,0)" fill="transparent" stroke-dasharray="none" stroke-width="0" stroke="transparent"></path><g transform="matrix(1,0,0,1,35.44211196899414,2)"><g data-width="98" data-height="23" data-ismultiLine="false" data-offsetx="0"><text fill="#fafafa" style="font-size: 16px; font-weight: normal; font-style: normal; text-decoration: none;" y="18.181817865371706" x="0"><tspan dy="0" x="0">product_sizes</tspan></text></g></g><rect width="166" height="31" x="-2" y="-2" class="smm-hover-node" rx="5" ry="5" fill="none" stroke="transparent"></rect></g><g class="smm-node" transform="matrix(1,0,0,1,78.36358642578125,50.59375)" style="cursor: default;"><path d="
      M5,0
      L127,0
      C127,0 132,0 132,5
      L132,22
      C132,22 132,27 127,27
      L5,27
      C5,27 0,27 0,22
      L0,5
      C0,5 0,0 5,0
      Z
    " class="smm-node-shape" transform="matrix(1,0,0,1,0,0)" fill="transparent" stroke-dasharray="none" stroke-width="0" stroke="transparent"></path><g transform="matrix(1,0,0,1,33.09708023071289,2)"><g data-width="68" data-height="23" data-ismultiLine="false" data-offsetx="0"><text fill="#fafafa" style="font-size: 16px; font-weight: normal; font-style: normal; text-decoration: none;" y="18.181817865371706" x="0"><tspan dy="0" x="0">inventory</tspan></text></g></g><rect width="136" height="31" x="-2" y="-2" class="smm-hover-node" rx="5" ry="5" fill="none" stroke="transparent"></rect></g><g class="smm-node" transform="matrix(1,0,0,1,74.36358642578125,81.59375)" style="cursor: default;"><path d="
      M5,0
      L131,0
      C131,0 136,0 136,5
      L136,22
      C136,22 136,27 131,27
      L5,27
      C5,27 0,27 0,22
      L0,5
      C0,5 0,0 5,0
      Z
    " class="smm-node-shape" transform="matrix(1,0,0,1,0,0)" fill="transparent" stroke-dasharray="none" stroke-width="0" stroke="transparent"></path><g transform="matrix(1,0,0,1,32.56608963012695,2)"><g data-width="72" data-height="23" data-ismultiLine="false" data-offsetx="0"><text fill="#fafafa" style="font-size: 16px; font-weight: normal; font-style: normal; text-decoration: none;" y="18.181817865371706" x="0"><tspan dy="0" x="0">cart_items</tspan></text></g></g><rect width="140" height="31" x="-2" y="-2" class="smm-hover-node" rx="5" ry="5" fill="none" stroke="transparent"></rect></g><g class="smm-node" transform="matrix(1,0,0,1,99.36358642578125,112.59375)" style="cursor: default;"><path d="
      M5,0
      L106,0
      C106,0 111,0 111,5
      L111,22
      C111,22 111,27 106,27
      L5,27
      C5,27 0,27 0,22
      L0,5
      C0,5 0,0 5,0
      Z
    " class="smm-node-shape" transform="matrix(1,0,0,1,0,0)" fill="transparent" stroke-dasharray="none" stroke-width="0" stroke="transparent"></path><g transform="matrix(1,0,0,1,32.72105598449707,2)"><g data-width="47" data-height="23" data-ismultiLine="false" data-offsetx="0"><text fill="#fafafa" style="font-size: 16px; font-weight: normal; font-style: normal; text-decoration: none;" y="18.181817865371706" x="0"><tspan dy="0" x="0">orders</tspan></text></g></g><rect width="115" height="31" x="-2" y="-2" class="smm-hover-node" rx="5" ry="5" fill="none" stroke="transparent"></rect></g><g class="smm-node" transform="matrix(1,0,0,1,61.36358642578125,143.59375)" style="cursor: default;"><path d="
      M5,0
      L144,0
      C144,0 149,0 149,5
      L149,22
      C149,22 149,27 144,27
      L5,27
      C5,27 0,27 0,22
      L0,5
      C0,5 0,0 5,0
      Z
    " class="smm-node-shape" transform="matrix(1,0,0,1,0,0)" fill="transparent" stroke-dasharray="none" stroke-width="0" stroke="transparent"></path><g transform="matrix(1,0,0,1,31.473106384277344,2)"><g data-width="85" data-height="23" data-ismultiLine="false" data-offsetx="0"><text fill="#fafafa" style="font-size: 16px; font-weight: normal; font-style: normal; text-decoration: none;" y="18.181817865371706" x="0"><tspan dy="0" x="0">order_items</tspan></text></g></g><rect width="153" height="31" x="-2" y="-2" class="smm-hover-node" rx="5" ry="5" fill="none" stroke="transparent"></rect></g><g class="smm-node" transform="matrix(1,0,0,1,12.36358642578125,174.59375)" style="cursor: default;"><path d="
      M5,0
      L193,0
      C193,0 198,0 198,5
      L198,22
      C198,22 198,27 193,27
      L5,27
      C5,27 0,27 0,22
      L0,5
      C0,5 0,0 5,0
      Z
    " class="smm-node-shape" transform="matrix(1,0,0,1,0,0)" fill="transparent" stroke-dasharray="none" stroke-width="0" stroke="transparent"></path><g transform="matrix(1,0,0,1,30.663169860839844,2)"><g data-width="134" data-height="23" data-ismultiLine="false" data-offsetx="0"><text fill="#fafafa" style="font-size: 16px; font-weight: normal; font-style: normal; text-decoration: none;" y="18.181817865371706" x="0"><tspan dy="0" x="0">wallet_transactions</tspan></text></g></g><rect width="202" height="31" x="-2" y="-2" class="smm-hover-node" rx="5" ry="5" fill="none" stroke="transparent"></rect></g><g class="smm-node" transform="matrix(1,0,0,1,29.36358642578125,205.59375)" style="cursor: default;"><path d="
      M5,0
      L176,0
      C176,0 181,0 181,5
      L181,22
      C181,22 181,27 176,27
      L5,27
      C5,27 0,27 0,22
      L0,5
      C0,5 0,0 5,0
      Z
    " class="smm-node-shape" transform="matrix(1,0,0,1,0,0)" fill="transparent" stroke-dasharray="none" stroke-width="0" stroke="transparent"></path><g transform="matrix(1,0,0,1,34.818138122558594,2)"><g data-width="117" data-height="23" data-ismultiLine="false" data-offsetx="0"><text fill="#fafafa" style="font-size: 16px; font-weight: normal; font-style: normal; text-decoration: none;" y="18.181817865371706" x="0"><tspan dy="0" x="0">product_reviews</tspan></text></g></g><rect width="185" height="31" x="-2" y="-2" class="smm-hover-node" rx="5" ry="5" fill="none" stroke="transparent"></rect></g><g class="smm-node" transform="matrix(1,0,0,1,17.36358642578125,236.59375)" style="cursor: default;"><path d="
      M5,0
      L188,0
      C188,0 193,0 193,5
      L193,22
      C193,22 193,27 188,27
      L5,27
      C5,27 0,27 0,22
      L0,5
      C0,5 0,0 5,0
      Z
    " class="smm-node-shape" transform="matrix(1,0,0,1,0,0)" fill="transparent" stroke-dasharray="none" stroke-width="0" stroke="transparent"></path><g transform="matrix(1,0,0,1,33.22515869140625,2)"><g data-width="129" data-height="23" data-ismultiLine="false" data-offsetx="0"><text fill="#fafafa" style="font-size: 16px; font-weight: normal; font-style: normal; text-decoration: none;" y="18.181817865371706" x="0"><tspan dy="0" x="0">review_comments</tspan></text></g></g><rect width="197" height="31" x="-2" y="-2" class="smm-hover-node" rx="5" ry="5" fill="none" stroke="transparent"></rect></g><g class="smm-node" transform="matrix(1,0,0,1,11.36358642578125,267.59375)" style="cursor: default;"><path d="
      M5,0
      L194,0
      C194,0 199,0 199,5
      L199,22
      C199,22 199,27 194,27
      L5,27
      C5,27 0,27 0,22
      L0,5
      C0,5 0,0 5,0
      Z
    " class="smm-node-shape" transform="matrix(1,0,0,1,0,0)" fill="transparent" stroke-dasharray="none" stroke-width="0" stroke="transparent"></path><g transform="matrix(1,0,0,1,31.163169860839844,2)"><g data-width="135" data-height="23" data-ismultiLine="false" data-offsetx="0"><text fill="#fafafa" style="font-size: 16px; font-weight: normal; font-style: normal; text-decoration: none;" y="18.181817865371706" x="0"><tspan dy="0" x="0">review_interactions</tspan></text></g></g><rect width="203" height="31" x="-2" y="-2" class="smm-hover-node" rx="5" ry="5" fill="none" stroke="transparent"></rect></g><g class="smm-node" transform="matrix(1,0,0,1,81.36358642578125,298.59375)" style="cursor: default;"><path d="
      M5,0
      L124,0
      C124,0 129,0 129,5
      L129,22
      C129,22 129,27 124,27
      L5,27
      C5,27 0,27 0,22
      L0,5
      C0,5 0,0 5,0
      Z
    " class="smm-node-shape" transform="matrix(1,0,0,1,0,0)" fill="transparent" stroke-dasharray="none" stroke-width="0" stroke="transparent"></path><g transform="matrix(1,0,0,1,31.59708023071289,2)"><g data-width="65" data-height="23" data-ismultiLine="false" data-offsetx="0"><text fill="#fafafa" style="font-size: 16px; font-weight: normal; font-style: normal; text-decoration: none;" y="18.181817865371706" x="0"><tspan dy="0" x="0">suppliers</tspan></text></g></g><rect width="133" height="31" x="-2" y="-2" class="smm-hover-node" rx="5" ry="5" fill="none" stroke="transparent"></rect></g><g class="smm-node" transform="matrix(1,0,0,1,28.36358642578125,329.59375)" style="cursor: default;"><path d="
      M5,0
      L177,0
      C177,0 182,0 182,5
      L182,22
      C182,22 182,27 177,27
      L5,27
      C5,27 0,27 0,22
      L0,5
      C0,5 0,0 5,0
      Z
    " class="smm-node-shape" transform="matrix(1,0,0,1,0,0)" fill="transparent" stroke-dasharray="none" stroke-width="0" stroke="transparent"></path><g transform="matrix(1,0,0,1,32.78714370727539,2)"><g data-width="118" data-height="23" data-ismultiLine="false" data-offsetx="0"><text fill="#fafafa" style="font-size: 16px; font-weight: normal; font-style: normal; text-decoration: none;" y="18.181817865371706" x="0"><tspan dy="0" x="0">purchase_orders</tspan></text></g></g><rect width="186" height="31" x="-2" y="-2" class="smm-hover-node" rx="5" ry="5" fill="none" stroke="transparent"></rect></g><g class="smm-node" transform="matrix(1,0,0,1,-9.63641357421875,360.59375)" style="cursor: default;"><path d="
      M5,0
      L215,0
      C215,0 220,0 220,5
      L220,22
      C220,22 220,27 215,27
      L5,27
      C5,27 0,27 0,22
      L0,5
      C0,5 0,0 5,0
      Z
    " class="smm-node-shape" transform="matrix(1,0,0,1,0,0)" fill="transparent" stroke-dasharray="none" stroke-width="0" stroke="transparent"></path><g transform="matrix(1,0,0,1,31.53919219970703,2)"><g data-width="156" data-height="23" data-ismultiLine="false" data-offsetx="0"><text fill="#fafafa" style="font-size: 16px; font-weight: normal; font-style: normal; text-decoration: none;" y="18.181817865371706" x="0"><tspan dy="0" x="0">purchase_order_items</tspan></text></g></g><rect width="224" height="31" x="-2" y="-2" class="smm-hover-node" rx="5" ry="5" fill="none" stroke="transparent"></rect></g><g class="smm-node" transform="matrix(1,0,0,1,17.36358642578125,391.59375)" style="cursor: default;"><path d="
      M5,0
      L188,0
      C188,0 193,0 193,5
      L193,22
      C193,22 193,27 188,27
      L5,27
      C5,27 0,27 0,22
      L0,5
      C0,5 0,0 5,0
      Z
    " class="smm-node-shape" transform="matrix(1,0,0,1,0,0)" fill="transparent" stroke-dasharray="none" stroke-width="0" stroke="transparent"></path><g transform="matrix(1,0,0,1,33.22515869140625,2)"><g data-width="129" data-height="23" data-ismultiLine="false" data-offsetx="0"><text fill="#fafafa" style="font-size: 16px; font-weight: normal; font-style: normal; text-decoration: none;" y="18.181817865371706" x="0"><tspan dy="0" x="0">purchase_invoices</tspan></text></g></g><rect width="197" height="31" x="-2" y="-2" class="smm-hover-node" rx="5" ry="5" fill="none" stroke="transparent"></rect></g><g class="smm-node" transform="matrix(1,0,0,1,-20.63641357421875,422.59375)" style="cursor: default;"><path d="
      M5,0
      L226,0
      C226,0 231,0 231,5
      L231,22
      C231,22 231,27 226,27
      L5,27
      C5,27 0,27 0,22
      L0,5
      C0,5 0,0 5,0
      Z
    " class="smm-node-shape" transform="matrix(1,0,0,1,0,0)" fill="transparent" stroke-dasharray="none" stroke-width="0" stroke="transparent"></path><g transform="matrix(1,0,0,1,31.977210998535156,2)"><g data-width="167" data-height="23" data-ismultiLine="false" data-offsetx="0"><text fill="#fafafa" style="font-size: 16px; font-weight: normal; font-style: normal; text-decoration: none;" y="18.181817865371706" x="0"><tspan dy="0" x="0">purchase_invoice_items</tspan></text></g></g><rect width="235" height="31" x="-2" y="-2" class="smm-hover-node" rx="5" ry="5" fill="none" stroke="transparent"></rect></g><g class="smm-node" transform="matrix(1,0,0,1,895.3635864257812,361.09375)" style="cursor: default;"><path d="
      M5,0
      L239,0
      C239,0 244,0 244,5
      L244,18
      C244,18 244,23 239,23
      L5,23
      C5,23 0,23 0,18
      L0,5
      C0,5 0,0 5,0
      Z
    " class="smm-node-shape" transform="matrix(1,0,0,1,1.5,1.5)" fill="transparent" stroke-dasharray="none" stroke-width="3" stroke="transparent"></path><g transform="matrix(1,0,0,1,32.38422393798828,1.5)"><g data-width="180" data-height="23" data-ismultiLine="false" data-offsetx="0"><text fill="#fafafa" style="font-size: 16px; font-weight: normal; font-style: normal; text-decoration: none;" y="18.181817865371706" x="0"><tspan dy="0" x="0">الوظائف الرئيسية للمشروع</tspan></text></g></g><rect width="251" height="30" x="-2" y="-2" class="smm-hover-node" rx="5" ry="5" fill="none" stroke="transparent"></rect><rect fill="transparent" width="20" height="26" x="247" y="0"></rect></g><g class="smm-node" transform="matrix(1,0,0,1,1196.3635864257812,221.09375)" style="cursor: default;"><path d="
      M5,0
      L230,0
      C230,0 235,0 235,5
      L235,22
      C235,22 235,27 230,27
      L5,27
      C5,27 0,27 0,22
      L0,5
      C0,5 0,0 5,0
      Z
    " class="smm-node-shape" transform="matrix(1,0,0,1,0,0)" fill="transparent" stroke-dasharray="none" stroke-width="0" stroke="transparent"></path><g transform="matrix(1,0,0,1,26.38422393798828,2)"><g data-width="171" data-height="23" data-ismultiLine="false" data-offsetx="0"><text fill="#fafafa" style="font-size: 16px; font-weight: normal; font-style: normal; text-decoration: none;" y="18.181817865371706" x="0"><tspan dy="0" x="0">واجهة المستخدم (العميل)</tspan></text></g></g><rect width="239" height="31" x="-2" y="-2" class="smm-hover-node" rx="5" ry="5" fill="none" stroke="transparent"></rect><rect fill="transparent" width="20" height="27" x="235" y="0"></rect></g><g class="smm-node" transform="matrix(1,0,0,1,1485.3635864257812,159.09375)" style="cursor: default;"><path d="
      M5,0
      L162,0
      C162,0 167,0 167,5
      L167,22
      C167,22 167,27 162,27
      L5,27
      C5,27 0,27 0,22
      L0,5
      C0,5 0,0 5,0
      Z
    " class="smm-node-shape" transform="matrix(1,0,0,1,0,0)" fill="transparent" stroke-dasharray="none" stroke-width="0" stroke="transparent"></path><g transform="matrix(1,0,0,1,32.880126953125,2)"><g data-width="103" data-height="23" data-ismultiLine="false" data-offsetx="0"><text fill="#fafafa" style="font-size: 16px; font-weight: normal; font-style: normal; text-decoration: none;" y="18.181817865371706" x="0"><tspan dy="0" x="0">عرض المنتجات</tspan></text></g></g><rect width="171" height="31" x="-2" y="-2" class="smm-hover-node" rx="5" ry="5" fill="none" stroke="transparent"></rect></g><g class="smm-node" transform="matrix(1,0,0,1,1485.3635864257812,190.09375)" style="cursor: default;"><path d="
      M5,0
      L141,0
      C141,0 146,0 146,5
      L146,22
      C146,22 146,27 141,27
      L5,27
      C5,27 0,27 0,22
      L0,5
      C0,5 0,0 5,0
      Z
    " class="smm-node-shape" transform="matrix(1,0,0,1,0,0)" fill="transparent" stroke-dasharray="none" stroke-width="0" stroke="transparent"></path><g transform="matrix(1,0,0,1,29.973106384277344,2)"><g data-width="82" data-height="23" data-ismultiLine="false" data-offsetx="0"><text fill="#fafafa" style="font-size: 16px; font-weight: normal; font-style: normal; text-decoration: none;" y="18.181817865371706" x="0"><tspan dy="0" x="0">سلة التسوق</tspan></text></g></g><rect width="150" height="31" x="-2" y="-2" class="smm-hover-node" rx="5" ry="5" fill="none" stroke="transparent"></rect></g><g class="smm-node" transform="matrix(1,0,0,1,1485.3635864257812,221.09375)" style="cursor: default;"><path d="
      M5,0
      L139,0
      C139,0 144,0 144,5
      L144,22
      C144,22 144,27 139,27
      L5,27
      C5,27 0,27 0,22
      L0,5
      C0,5 0,0 5,0
      Z
    " class="smm-node-shape" transform="matrix(1,0,0,1,0,0)" fill="transparent" stroke-dasharray="none" stroke-width="0" stroke="transparent"></path><g transform="matrix(1,0,0,1,28.973106384277344,2)"><g data-width="80" data-height="23" data-ismultiLine="false" data-offsetx="0"><text fill="#fafafa" style="font-size: 16px; font-weight: normal; font-style: normal; text-decoration: none;" y="18.181817865371706" x="0"><tspan dy="0" x="0">عملية الدفع</tspan></text></g></g><rect width="148" height="31" x="-2" y="-2" class="smm-hover-node" rx="5" ry="5" fill="none" stroke="transparent"></rect></g><g class="smm-node" transform="matrix(1,0,0,1,1485.3635864257812,252.09375)" style="cursor: default;"><path d="
      M5,0
      L156,0
      C156,0 161,0 161,5
      L161,22
      C161,22 161,27 156,27
      L5,27
      C5,27 0,27 0,22
      L0,5
      C0,5 0,0 5,0
      Z
    " class="smm-node-shape" transform="matrix(1,0,0,1,0,0)" fill="transparent" stroke-dasharray="none" stroke-width="0" stroke="transparent"></path><g transform="matrix(1,0,0,1,32.4111213684082,2)"><g data-width="97" data-height="23" data-ismultiLine="false" data-offsetx="0"><text fill="#fafafa" style="font-size: 16px; font-weight: normal; font-style: normal; text-decoration: none;" y="18.181817865371706" x="0"><tspan dy="0" x="0">عرض الطلبات</tspan></text></g></g><rect width="165" height="31" x="-2" y="-2" class="smm-hover-node" rx="5" ry="5" fill="none" stroke="transparent"></rect></g><g class="smm-node" transform="matrix(1,0,0,1,1485.3635864257812,283.09375)" style="cursor: default;"><path d="
      M5,0
      L192,0
      C192,0 197,0 197,5
      L197,22
      C197,22 197,27 192,27
      L5,27
      C5,27 0,27 0,22
      L0,5
      C0,5 0,0 5,0
      Z
    " class="smm-node-shape" transform="matrix(1,0,0,1,0,0)" fill="transparent" stroke-dasharray="none" stroke-width="0" stroke="transparent"></path><g transform="matrix(1,0,0,1,32.69416046142578,2)"><g data-width="133" data-height="23" data-ismultiLine="false" data-offsetx="0"><text fill="#fafafa" style="font-size: 16px; font-weight: normal; font-style: normal; text-decoration: none;" y="18.181817865371706" x="0"><tspan dy="0" x="0">عرض المنتج الفردي</tspan></text></g></g><rect width="201" height="31" x="-2" y="-2" class="smm-hover-node" rx="5" ry="5" fill="none" stroke="transparent"></rect></g><g class="smm-node" transform="matrix(1,0,0,1,1196.3635864257812,438.09375)" style="cursor: default;"><path d="
      M5,0
      L195,0
      C195,0 200,0 200,5
      L200,22
      C200,22 200,27 195,27
      L5,27
      C5,27 0,27 0,22
      L0,5
      C0,5 0,0 5,0
      Z
    " class="smm-node-shape" transform="matrix(1,0,0,1,0,0)" fill="transparent" stroke-dasharray="none" stroke-width="0" stroke="transparent"></path><g transform="matrix(1,0,0,1,26.601181030273438,2)"><g data-width="136" data-height="23" data-ismultiLine="false" data-offsetx="0"><text fill="#fafafa" style="font-size: 16px; font-weight: normal; font-style: normal; text-decoration: none;" y="18.181817865371706" x="0"><tspan dy="0" x="0">لوحة التحكم (الإدارة)</tspan></text></g></g><rect width="204" height="31" x="-2" y="-2" class="smm-hover-node" rx="5" ry="5" fill="none" stroke="transparent"></rect><rect fill="transparent" width="20" height="27" x="200" y="0"></rect></g><g class="smm-node" transform="matrix(1,0,0,1,1450.3635864257812,314.09375)" style="cursor: default;"><path d="
      M5,0
      L199,0
      C199,0 204,0 204,5
      L204,22
      C204,22 204,27 199,27
      L5,27
      C5,27 0,27 0,22
      L0,5
      C0,5 0,0 5,0
      Z
    " class="smm-node-shape" transform="matrix(1,0,0,1,0,0)" fill="transparent" stroke-dasharray="none" stroke-width="0" stroke="transparent"></path><g transform="matrix(1,0,0,1,28.601181030273438,2)"><g data-width="140" data-height="23" data-ismultiLine="false" data-offsetx="0"><text fill="#fafafa" style="font-size: 16px; font-weight: normal; font-style: normal; text-decoration: none;" y="18.181817865371706" x="0"><tspan dy="0" x="0">لوحة التحكم الرئيسية</tspan></text></g></g><rect width="208" height="31" x="-2" y="-2" class="smm-hover-node" rx="5" ry="5" fill="none" stroke="transparent"></rect></g><g class="smm-node" transform="matrix(1,0,0,1,1450.3635864257812,345.09375)" style="cursor: default;"><path d="
      M5,0
      L179,0
      C179,0 184,0 184,5
      L184,22
      C184,22 184,27 179,27
      L5,27
      C5,27 0,27 0,22
      L0,5
      C0,5 0,0 5,0
      Z
    " class="smm-node-shape" transform="matrix(1,0,0,1,0,0)" fill="transparent" stroke-dasharray="none" stroke-width="0" stroke="transparent"></path><g transform="matrix(1,0,0,1,28.72515869140625,2)"><g data-width="120" data-height="23" data-ismultiLine="false" data-offsetx="0"><text fill="#fafafa" style="font-size: 16px; font-weight: normal; font-style: normal; text-decoration: none;" y="18.181817865371706" x="0"><tspan dy="0" x="0">إدارة المستخدمين</tspan></text></g></g><rect width="188" height="31" x="-2" y="-2" class="smm-hover-node" rx="5" ry="5" fill="none" stroke="transparent"></rect></g><g class="smm-node" transform="matrix(1,0,0,1,1450.3635864257812,376.09375)" style="cursor: default;"><path d="
      M5,0
      L139,0
      C139,0 144,0 144,5
      L144,22
      C144,22 144,27 139,27
      L5,27
      C5,27 0,27 0,22
      L0,5
      C0,5 0,0 5,0
      Z
    " class="smm-node-shape" transform="matrix(1,0,0,1,0,0)" fill="transparent" stroke-dasharray="none" stroke-width="0" stroke="transparent"></path><g transform="matrix(1,0,0,1,28.973106384277344,2)"><g data-width="80" data-height="23" data-ismultiLine="false" data-offsetx="0"><text fill="#fafafa" style="font-size: 16px; font-weight: normal; font-style: normal; text-decoration: none;" y="18.181817865371706" x="0"><tspan dy="0" x="0">إدارة الفئات</tspan></text></g></g><rect width="148" height="31" x="-2" y="-2" class="smm-hover-node" rx="5" ry="5" fill="none" stroke="transparent"></rect></g><g class="smm-node" transform="matrix(1,0,0,1,1450.3635864257812,407.09375)" style="cursor: default;"><path d="
      M5,0
      L157,0
      C157,0 162,0 162,5
      L162,22
      C162,22 162,27 157,27
      L5,27
      C5,27 0,27 0,22
      L0,5
      C0,5 0,0 5,0
      Z
    " class="smm-node-shape" transform="matrix(1,0,0,1,0,0)" fill="transparent" stroke-dasharray="none" stroke-width="0" stroke="transparent"></path><g transform="matrix(1,0,0,1,30.380126953125,2)"><g data-width="98" data-height="23" data-ismultiLine="false" data-offsetx="0"><text fill="#fafafa" style="font-size: 16px; font-weight: normal; font-style: normal; text-decoration: none;" y="18.181817865371706" x="0"><tspan dy="0" x="0">إدارة المنتجات</tspan></text></g></g><rect width="166" height="31" x="-2" y="-2" class="smm-hover-node" rx="5" ry="5" fill="none" stroke="transparent"></rect></g><g class="smm-node" transform="matrix(1,0,0,1,1450.3635864257812,438.09375)" style="cursor: default;"><path d="
      M5,0
      L169,0
      C169,0 174,0 174,5
      L174,22
      C174,22 174,27 169,27
      L5,27
      C5,27 0,27 0,22
      L0,5
      C0,5 0,0 5,0
      Z
    " class="smm-node-shape" transform="matrix(1,0,0,1,0,0)" fill="transparent" stroke-dasharray="none" stroke-width="0" stroke="transparent"></path><g transform="matrix(1,0,0,1,31.318138122558594,2)"><g data-width="110" data-height="23" data-ismultiLine="false" data-offsetx="0"><text fill="#fafafa" style="font-size: 16px; font-weight: normal; font-style: normal; text-decoration: none;" y="18.181817865371706" x="0"><tspan dy="0" x="0">إدارة المشتريات</tspan></text></g></g><rect width="178" height="31" x="-2" y="-2" class="smm-hover-node" rx="5" ry="5" fill="none" stroke="transparent"></rect></g><g class="smm-node" transform="matrix(1,0,0,1,1450.3635864257812,469.09375)" style="cursor: default;"><path d="
      M5,0
      L151,0
      C151,0 156,0 156,5
      L156,22
      C156,22 156,27 151,27
      L5,27
      C5,27 0,27 0,22
      L0,5
      C0,5 0,0 5,0
      Z
    " class="smm-node-shape" transform="matrix(1,0,0,1,0,0)" fill="transparent" stroke-dasharray="none" stroke-width="0" stroke="transparent"></path><g transform="matrix(1,0,0,1,29.911121368408203,2)"><g data-width="92" data-height="23" data-ismultiLine="false" data-offsetx="0"><text fill="#fafafa" style="font-size: 16px; font-weight: normal; font-style: normal; text-decoration: none;" y="18.181817865371706" x="0"><tspan dy="0" x="0">إدارة المخزون</tspan></text></g></g><rect width="160" height="31" x="-2" y="-2" class="smm-hover-node" rx="5" ry="5" fill="none" stroke="transparent"></rect></g><g class="smm-node" transform="matrix(1,0,0,1,1450.3635864257812,500.09375)" style="cursor: default;"><path d="
      M5,0
      L150,0
      C150,0 155,0 155,5
      L155,22
      C155,22 155,27 150,27
      L5,27
      C5,27 0,27 0,22
      L0,5
      C0,5 0,0 5,0
      Z
    " class="smm-node-shape" transform="matrix(1,0,0,1,0,0)" fill="transparent" stroke-dasharray="none" stroke-width="0" stroke="transparent"></path><g transform="matrix(1,0,0,1,29.411121368408203,2)"><g data-width="91" data-height="23" data-ismultiLine="false" data-offsetx="0"><text fill="#fafafa" style="font-size: 16px; font-weight: normal; font-style: normal; text-decoration: none;" y="18.181817865371706" x="0"><tspan dy="0" x="0">إدارة الطلبات</tspan></text></g></g><rect width="159" height="31" x="-2" y="-2" class="smm-hover-node" rx="5" ry="5" fill="none" stroke="transparent"></rect></g><g class="smm-node" transform="matrix(1,0,0,1,1450.3635864257812,531.09375)" style="cursor: default;"><path d="
      M5,0
      L155,0
      C155,0 160,0 160,5
      L160,22
      C160,22 160,27 155,27
      L5,27
      C5,27 0,27 0,22
      L0,5
      C0,5 0,0 5,0
      Z
    " class="smm-node-shape" transform="matrix(1,0,0,1,0,0)" fill="transparent" stroke-dasharray="none" stroke-width="0" stroke="transparent"></path><g transform="matrix(1,0,0,1,29.380126953125,2)"><g data-width="96" data-height="23" data-ismultiLine="false" data-offsetx="0"><text fill="#fafafa" style="font-size: 16px; font-weight: normal; font-style: normal; text-decoration: none;" y="18.181817865371706" x="0"><tspan dy="0" x="0">إدارة الموردين</tspan></text></g></g><rect width="164" height="31" x="-2" y="-2" class="smm-hover-node" rx="5" ry="5" fill="none" stroke="transparent"></rect></g><g class="smm-node" transform="matrix(1,0,0,1,1450.3635864257812,562.09375)" style="cursor: default;"><path d="
      M5,0
      L178,0
      C178,0 183,0 183,5
      L183,22
      C183,22 183,27 178,27
      L5,27
      C5,27 0,27 0,22
      L0,5
      C0,5 0,0 5,0
      Z
    " class="smm-node-shape" transform="matrix(1,0,0,1,0,0)" fill="transparent" stroke-dasharray="none" stroke-width="0" stroke="transparent"></path><g transform="matrix(1,0,0,1,33.28714370727539,2)"><g data-width="119" data-height="23" data-ismultiLine="false" data-offsetx="0"><text fill="#fafafa" style="font-size: 16px; font-weight: normal; font-style: normal; text-decoration: none;" y="18.181817865371706" x="0"><tspan dy="0" x="0">تقارير وإحصائيات</tspan></text></g></g><rect width="187" height="31" x="-2" y="-2" class="smm-hover-node" rx="5" ry="5" fill="none" stroke="transparent"></rect></g><g class="smm-node" transform="matrix(1,0,0,1,238.36358642578125,547.09375)" style="cursor: default;"><path d="
      M5,0
      L266,0
      C266,0 271,0 271,5
      L271,18
      C271,18 271,23 266,23
      L5,23
      C5,23 0,23 0,18
      L0,5
      C0,5 0,0 5,0
      Z
    " class="smm-node-shape" transform="matrix(1,0,0,1,1.5,1.5)" fill="transparent" stroke-dasharray="none" stroke-width="3" stroke="transparent"></path><g transform="matrix(1,0,0,1,28.167274475097656,1.5)"><g data-width="207" data-height="23" data-ismultiLine="false" data-offsetx="0"><text fill="#fafafa" style="font-size: 16px; font-weight: normal; font-style: normal; text-decoration: none;" y="18.181817865371706" x="0"><tspan dy="0" x="0">التقنيات والمفاهيم المستخدمة</tspan></text></g></g><rect width="278" height="30" x="-2" y="-2" class="smm-hover-node" rx="5" ry="5" fill="none" stroke="transparent"></rect><rect fill="transparent" width="20" height="26" x="-20" y="0"></rect></g><g class="smm-node" transform="matrix(1,0,0,1,12.36358642578125,453.59375)" style="cursor: default;"><path d="
      M5,0
      L167,0
      C167,0 172,0 172,5
      L172,22
      C172,22 172,27 167,27
      L5,27
      C5,27 0,27 0,22
      L0,5
      C0,5 0,0 5,0
      Z
    " class="smm-node-shape" transform="matrix(1,0,0,1,0,0)" fill="transparent" stroke-dasharray="none" stroke-width="0" stroke="transparent"></path><g transform="matrix(1,0,0,1,35.380126953125,2)"><g data-width="108" data-height="23" data-ismultiLine="false" data-offsetx="0"><text fill="#fafafa" style="font-size: 16px; font-weight: normal; font-style: normal; text-decoration: none;" y="18.181817865371706" x="0"><tspan dy="0" x="0">PHP &amp; MySQLi</tspan></text></g></g><rect width="176" height="31" x="-2" y="-2" class="smm-hover-node" rx="5" ry="5" fill="none" stroke="transparent"></rect></g><g class="smm-node" transform="matrix(1,0,0,1,10.36358642578125,484.59375)" style="cursor: default;"><path d="
      M5,0
      L169,0
      C169,0 174,0 174,5
      L174,22
      C174,22 174,27 169,27
      L5,27
      C5,27 0,27 0,22
      L0,5
      C0,5 0,0 5,0
      Z
    " class="smm-node-shape" transform="matrix(1,0,0,1,0,0)" fill="transparent" stroke-dasharray="none" stroke-width="0" stroke="transparent"></path><g transform="matrix(1,0,0,1,31.318138122558594,2)"><g data-width="110" data-height="23" data-ismultiLine="false" data-offsetx="0"><text fill="#fafafa" style="font-size: 16px; font-weight: normal; font-style: normal; text-decoration: none;" y="18.181817865371706" x="0"><tspan dy="0" x="0">HTML5 &amp; CSS3</tspan></text></g></g><rect width="178" height="31" x="-2" y="-2" class="smm-hover-node" rx="5" ry="5" fill="none" stroke="transparent"></rect></g><g class="smm-node" transform="matrix(1,0,0,1,-99.63641357421875,515.59375)" style="cursor: default;"><path d="
      M5,0
      L279,0
      C279,0 284,0 284,5
      L284,22
      C284,22 284,27 279,27
      L5,27
      C5,27 0,27 0,22
      L0,5
      C0,5 0,0 5,0
      Z
    " class="smm-node-shape" transform="matrix(1,0,0,1,0,0)" fill="transparent" stroke-dasharray="none" stroke-width="0" stroke="transparent"></path><g transform="matrix(1,0,0,1,28.10528564453125,2)"><g data-width="220" data-height="23" data-ismultiLine="false" data-offsetx="0"><text fill="#fafafa" style="font-size: 16px; font-weight: normal; font-style: normal; text-decoration: none;" y="18.181817865371706" x="0.9090909307653234"><tspan dy="0" x="0.9090909307653234">JavaScript (Vanilla JS &amp; jQuery)</tspan></text></g></g><rect width="288" height="31" x="-2" y="-2" class="smm-hover-node" rx="5" ry="5" fill="none" stroke="transparent"></rect></g><g class="smm-node" transform="matrix(1,0,0,1,22.36358642578125,546.59375)" style="cursor: default;"><path d="
      M5,0
      L157,0
      C157,0 162,0 162,5
      L162,22
      C162,22 162,27 157,27
      L5,27
      C5,27 0,27 0,22
      L0,5
      C0,5 0,0 5,0
      Z
    " class="smm-node-shape" transform="matrix(1,0,0,1,0,0)" fill="transparent" stroke-dasharray="none" stroke-width="0" stroke="transparent"></path><g transform="matrix(1,0,0,1,30.380126953125,2)"><g data-width="98" data-height="23" data-ismultiLine="false" data-offsetx="0"><text fill="#fafafa" style="font-size: 16px; font-weight: normal; font-style: normal; text-decoration: none;" y="18.181817865371706" x="0"><tspan dy="0" x="0">Bootstrap 5.3</tspan></text></g></g><rect width="166" height="31" x="-2" y="-2" class="smm-hover-node" rx="5" ry="5" fill="none" stroke="transparent"></rect></g><g class="smm-node" transform="matrix(1,0,0,1,23.36358642578125,577.59375)" style="cursor: default;"><path d="
      M5,0
      L156,0
      C156,0 161,0 161,5
      L161,22
      C161,22 161,27 156,27
      L5,27
      C5,27 0,27 0,22
      L0,5
      C0,5 0,0 5,0
      Z
    " class="smm-node-shape" transform="matrix(1,0,0,1,0,0)" fill="transparent" stroke-dasharray="none" stroke-width="0" stroke="transparent"></path><g transform="matrix(1,0,0,1,32.4111213684082,2)"><g data-width="97" data-height="23" data-ismultiLine="false" data-offsetx="0"><text fill="#fafafa" style="font-size: 16px; font-weight: normal; font-style: normal; text-decoration: none;" y="18.181817865371706" x="0"><tspan dy="0" x="0">PHP Sessions</tspan></text></g></g><rect width="165" height="31" x="-2" y="-2" class="smm-hover-node" rx="5" ry="5" fill="none" stroke="transparent"></rect></g><g class="smm-node" transform="matrix(1,0,0,1,-39.63641357421875,608.59375)" style="cursor: default;"><path d="
      M5,0
      L219,0
      C219,0 224,0 224,5
      L224,22
      C224,22 224,27 219,27
      L5,27
      C5,27 0,27 0,22
      L0,5
      C0,5 0,0 5,0
      Z
    " class="smm-node-shape" transform="matrix(1,0,0,1,0,0)" fill="transparent" stroke-dasharray="none" stroke-width="0" stroke="transparent"></path><g transform="matrix(1,0,0,1,28.477210998535156,2)"><g data-width="160" data-height="23" data-ismultiLine="false" data-offsetx="0"><text fill="#fafafa" style="font-size: 16px; font-weight: normal; font-style: normal; text-decoration: none;" y="18.181817865371706" x="0"><tspan dy="0" x="0">معاملات قاعدة البيانات</tspan></text></g></g><rect width="228" height="31" x="-2" y="-2" class="smm-hover-node" rx="5" ry="5" fill="none" stroke="transparent"></rect></g><g class="smm-node" transform="matrix(1,0,0,1,17.36358642578125,639.59375)" style="cursor: default;"><path d="
      M5,0
      L162,0
      C162,0 167,0 167,5
      L167,22
      C167,22 167,27 162,27
      L5,27
      C5,27 0,27 0,22
      L0,5
      C0,5 0,0 5,0
      Z
    " class="smm-node-shape" transform="matrix(1,0,0,1,0,0)" fill="transparent" stroke-dasharray="none" stroke-width="0" stroke="transparent"></path><g transform="matrix(1,0,0,1,30.349132537841797,2)"><g data-width="103" data-height="23" data-ismultiLine="false" data-offsetx="0"><text fill="#fafafa" style="font-size: 16px; font-weight: normal; font-style: normal; text-decoration: none;" y="18.181817865371706" x="0"><tspan dy="0" x="0">معالجة الأخطاء</tspan></text></g></g><rect width="171" height="31" x="-2" y="-2" class="smm-hover-node" rx="5" ry="5" fill="none" stroke="transparent"></rect></g><g class="smm-node" transform="matrix(1,0,0,1,895.3635864257812,686.59375)" style="cursor: default;"><path d="
      M5,0
      L218,0
      C218,0 223,0 223,5
      L223,18
      C223,18 223,23 218,23
      L5,23
      C5,23 0,23 0,18
      L0,5
      C0,5 0,0 5,0
      Z
    " class="smm-node-shape" transform="matrix(1,0,0,1,1.5,1.5)" fill="transparent" stroke-dasharray="none" stroke-width="3" stroke="transparent"></path><g transform="matrix(1,0,0,1,26.946212768554688,1.5)"><g data-width="159" data-height="23" data-ismultiLine="false" data-offsetx="0"><text fill="#fafafa" style="font-size: 16px; font-weight: normal; font-style: normal; text-decoration: none;" y="18.181817865371706" x="0"><tspan dy="0" x="0">نقاط القوة في المشروع</tspan></text></g></g><rect width="230" height="30" x="-2" y="-2" class="smm-hover-node" rx="5" ry="5" fill="none" stroke="transparent"></rect><rect fill="transparent" width="20" height="26" x="226" y="0"></rect></g><g class="smm-node" transform="matrix(1,0,0,1,1175.3635864257812,593.09375)" style="cursor: default;"><path d="
      M5,0
      L239,0
      C239,0 244,0 244,5
      L244,22
      C244,22 244,27 239,27
      L5,27
      C5,27 0,27 0,22
      L0,5
      C0,5 0,0 5,0
      Z
    " class="smm-node-shape" transform="matrix(1,0,0,1,0,0)" fill="transparent" stroke-dasharray="none" stroke-width="0" stroke="transparent"></path><g transform="matrix(1,0,0,1,28.353233337402344,2)"><g data-width="180" data-height="23" data-ismultiLine="false" data-offsetx="0"><text fill="#fafafa" style="font-size: 16px; font-weight: normal; font-style: normal; text-decoration: none;" y="18.181817865371706" x="0"><tspan dy="0" x="0">تصميم قاعدة بيانات شامل</tspan></text></g></g><rect width="248" height="31" x="-2" y="-2" class="smm-hover-node" rx="5" ry="5" fill="none" stroke="transparent"></rect></g><g class="smm-node" transform="matrix(1,0,0,1,1175.3635864257812,624.09375)" style="cursor: default;"><path d="
      M5,0
      L160,0
      C160,0 165,0 165,5
      L165,22
      C165,22 165,27 160,27
      L5,27
      C5,27 0,27 0,22
      L0,5
      C0,5 0,0 5,0
      Z
    " class="smm-node-shape" transform="matrix(1,0,0,1,0,0)" fill="transparent" stroke-dasharray="none" stroke-width="0" stroke="transparent"></path><g transform="matrix(1,0,0,1,31.880126953125,2)"><g data-width="101" data-height="23" data-ismultiLine="false" data-offsetx="0"><text fill="#fafafa" style="font-size: 16px; font-weight: normal; font-style: normal; text-decoration: none;" y="18.181817865371706" x="0"><tspan dy="0" x="0">الأمان الأساسي</tspan></text></g></g><rect width="169" height="31" x="-2" y="-2" class="smm-hover-node" rx="5" ry="5" fill="none" stroke="transparent"></rect></g><g class="smm-node" transform="matrix(1,0,0,1,1175.3635864257812,655.09375)" style="cursor: default;"><path d="
      M5,0
      L194,0
      C194,0 199,0 199,5
      L199,22
      C199,22 199,27 194,27
      L5,27
      C5,27 0,27 0,22
      L0,5
      C0,5 0,0 5,0
      Z
    " class="smm-node-shape" transform="matrix(1,0,0,1,0,0)" fill="transparent" stroke-dasharray="none" stroke-width="0" stroke="transparent"></path><g transform="matrix(1,0,0,1,28.632179260253906,2)"><g data-width="135" data-height="23" data-ismultiLine="false" data-offsetx="0"><text fill="#fafafa" style="font-size: 16px; font-weight: normal; font-style: normal; text-decoration: none;" y="18.181817865371706" x="0"><tspan dy="0" x="0">تجربة مستخدم جيدة</tspan></text></g></g><rect width="203" height="31" x="-2" y="-2" class="smm-hover-node" rx="5" ry="5" fill="none" stroke="transparent"></rect></g><g class="smm-node" transform="matrix(1,0,0,1,1175.3635864257812,686.09375)" style="cursor: default;"><path d="
      M5,0
      L196,0
      C196,0 201,0 201,5
      L201,22
      C201,22 201,27 196,27
      L5,27
      C5,27 0,27 0,22
      L0,5
      C0,5 0,0 5,0
      Z
    " class="smm-node-shape" transform="matrix(1,0,0,1,0,0)" fill="transparent" stroke-dasharray="none" stroke-width="0" stroke="transparent"></path><g transform="matrix(1,0,0,1,27.101181030273438,2)"><g data-width="137" data-height="23" data-ismultiLine="false" data-offsetx="0"><text fill="#fafafa" style="font-size: 16px; font-weight: normal; font-style: normal; text-decoration: none;" y="18.181817865371706" x="0"><tspan dy="0" x="0">إدارة مخزون متقدمة</tspan></text></g></g><rect width="205" height="31" x="-2" y="-2" class="smm-hover-node" rx="5" ry="5" fill="none" stroke="transparent"></rect></g><g class="smm-node" transform="matrix(1,0,0,1,1175.3635864257812,717.09375)" style="cursor: default;"><path d="
      M5,0
      L235,0
      C235,0 240,0 240,5
      L240,22
      C240,22 240,27 235,27
      L5,27
      C5,27 0,27 0,22
      L0,5
      C0,5 0,0 5,0
      Z
    " class="smm-node-shape" transform="matrix(1,0,0,1,0,0)" fill="transparent" stroke-dasharray="none" stroke-width="0" stroke="transparent"></path><g transform="matrix(1,0,0,1,28.88422393798828,2)"><g data-width="176" data-height="23" data-ismultiLine="false" data-offsetx="0"><text fill="#fafafa" style="font-size: 16px; font-weight: normal; font-style: normal; text-decoration: none;" y="18.181817865371706" x="0"><tspan dy="0" x="0">إدارة المشتريات المتكاملة</tspan></text></g></g><rect width="244" height="31" x="-2" y="-2" class="smm-hover-node" rx="5" ry="5" fill="none" stroke="transparent"></rect></g><g class="smm-node" transform="matrix(1,0,0,1,1175.3635864257812,748.09375)" style="cursor: default;"><path d="
      M5,0
      L188,0
      C188,0 193,0 193,5
      L193,22
      C193,22 193,27 188,27
      L5,27
      C5,27 0,27 0,22
      L0,5
      C0,5 0,0 5,0
      Z
    " class="smm-node-shape" transform="matrix(1,0,0,1,0,0)" fill="transparent" stroke-dasharray="none" stroke-width="0" stroke="transparent"></path><g transform="matrix(1,0,0,1,28.163169860839844,2)"><g data-width="129" data-height="23" data-ismultiLine="false" data-offsetx="0"><text fill="#fafafa" style="font-size: 16px; font-weight: normal; font-style: normal; text-decoration: none;" y="18.181817865371706" x="0"><tspan dy="0" x="0">المحافظ الإلكترونية</tspan></text></g></g><rect width="197" height="31" x="-2" y="-2" class="smm-hover-node" rx="5" ry="5" fill="none" stroke="transparent"></rect></g><g class="smm-node" transform="matrix(1,0,0,1,1175.3635864257812,779.09375)" style="cursor: default;"><path d="
      M5,0
      L109,0
      C109,0 114,0 114,5
      L114,22
      C114,22 114,27 109,27
      L5,27
      C5,27 0,27 0,22
      L0,5
      C0,5 0,0 5,0
      Z
    " class="smm-node-shape" transform="matrix(1,0,0,1,0,0)" fill="transparent" stroke-dasharray="none" stroke-width="0" stroke="transparent"></path><g transform="matrix(1,0,0,1,34.22105598449707,2)"><g data-width="50" data-height="23" data-ismultiLine="false" data-offsetx="0"><text fill="#fafafa" style="font-size: 16px; font-weight: normal; font-style: normal; text-decoration: none;" y="18.181817865371706" x="0"><tspan dy="0" x="0">التقارير</tspan></text></g></g><rect width="118" height="31" x="-2" y="-2" class="smm-hover-node" rx="5" ry="5" fill="none" stroke="transparent"></rect></g></g><g class="smm-associative-line-container"></g><g class="smm-other-container"></g></g><style>
  .smm-hover-node{
    display: none;
    opacity: 0.6;
    stroke-width: 1;
  }

  .smm-node:not(.smm-node-dragging):hover .smm-hover-node{
    display: block;
  }

  .smm-node.active .smm-hover-node, .smm-node-highlight .smm-hover-node{
    display: block;
    opacity: 1;
    stroke-width: 2;
  }
</style></svg>